<?xml version="1.0" encoding="utf-8"?>
<!-- Svg Vector Icons : http://www.onlinewebfonts.com/icon -->
<!DOCTYPE svg PUBLIC "-//W3C//DTD SVG 1.1//EN" "http://www.w3.org/Graphics/SVG/1.1/DTD/svg11.dtd">
<svg version="1.1" xmlns="http://www.w3.org/2000/svg" xmlns:xlink="http://www.w3.org/1999/xlink" x="0px" y="0px" viewBox="0 0 1000 1000" enable-background="new 0 0 1000 1000" xml:space="preserve">
<metadata> Svg Vector Icons : http://www.onlinewebfonts.com/icon </metadata>
<g><g transform="translate(0.000000,511.000000) scale(0.100000,-0.100000)"><path d="M365.2,4132.1c-82.3-82.3-78.5-193.4,9.6-281.5l65.1-65.1H3268h2828.1l65.1-65.1l65.1-65.1v-1955c0-1708,3.8-1964.6,28.7-2012.4c36.4-70.8,82.3-95.7,181.9-95.7c63.2,0,91.9,11.5,135.9,55.5l55.5,55.5v1428.4V2560h842.5h842.5l55.5-51.7c30.6-30.6,289.1-442.3,572.5-919.1c382.9-641.4,522.7-890.4,538.1-963.1c13.4-59.4,21.1-342.7,21.1-718v-622.3H4958.7c-4354.2,0-4547.6-1.9-4620.3-36.4c-97.7-44-193.4-151.3-218.3-245.1c-26.8-97.6-26.8-1369.1,0-1466.7c24.9-93.8,120.6-201.1,218.3-245.1c68.9-32.5,139.8-36.4,733.3-36.4c360,0,654.9-3.8,654.9-7.7c0-5.7,9.6-74.7,21.1-157c67-480.6,382.9-854,859.7-1014.8c158.9-53.6,538-51.7,718,5.7c459.6,145.5,806.1,574.4,846.3,1045.5l11.5,128.3h1020.6h1022.5v-61.3c1.9-237.4,145.5-576.3,327.4-769.7c229.8-245.1,499.8-373.4,825.3-390.6c293-13.4,486.3,36.4,737.2,193.4c308.3,191.5,559.1,624.2,561,967v61.3h455.7c398.3,0,463.4,5.7,530.4,36.4c97.6,44,193.4,153.2,220.2,248.9c13.4,53.6,19.2,566.8,15.3,1614.2l-5.7,1537.6l-44,124.5c-24.9,68.9-277.6,513.2-572.5,1005.3c-419.3,700.8-547.6,899.9-628,978.5c-168.5,162.8-153.2,160.8-1150.8,160.8h-867.4l-5.7,398.3c-5.7,386.8-7.6,398.3-57.4,492.1c-61.3,114.9-166.6,218.3-283.4,279.6l-86.2,46l-2887.5,5.7l-2887.5,3.8L365.2,4132.1z M9500.6-1729.1v-612.7h-446.1h-446.1l-67,139.8c-49.8,103.4-105.3,178.1-227.9,302.5c-180,180-340.8,277.6-555.3,335.1c-164.7,42.1-448.1,42.1-612.7,0c-338.9-90-645.3-344.7-792.7-658.7l-57.5-118.7H5203.8H4110.5l-44,101.5c-23,53.6-86.2,157-137.9,227.9C3572.4-1528,2900.4-1388.2,2358.5-1685c-178.1-99.6-392.5-321.7-486.4-507.4l-74.7-149.4h-649.1H501.1v612.7v612.7h4499.7h4499.7V-1729.1z M3285.2-2002.9c427-197.2,607-677.8,407.9-1091.4c-304.5-633.8-1187.2-624.2-1482,17.2c-72.8,160.8-84.3,405.9-24.9,580.2c84.2,250.8,260.4,430.8,507.4,517C2862.1-1920.5,3128.2-1930.1,3285.2-2002.9z M7798.3-2012.4c243.2-116.8,419.3-358.1,461.5-630c17.2-109.1,15.3-157-11.5-277.6c-143.6-649.1-947.8-867.4-1394-379.1c-398.3,434.7-227.8,1114.4,331.3,1321.2c84.3,32.6,139.8,38.3,294.9,32.6C7649-1951.2,7687.3-1958.8,7798.3-2012.4z"/><path d="M1203.9,2923.8c-72.8-57.4-99.6-153.2-63.2-235.5c55.5-136-24.9-130.2,1639.1-124.5l1493.5,5.7l49.8,49.8c30.7,30.6,53.6,78.5,59.4,128.3c9.6,70.8,3.8,86.2-57.4,147.4l-67,67H2754.8C1278.5,2962.1,1251.7,2962.1,1203.9,2923.8z"/><path d="M7141.6,2144.5c-26.8-17.2-59.3-51.7-70.8-76.6c-28.7-63.2-28.7-1403.5,0-1466.7c49.8-107.2,61.3-109.1,884.6-109.1c446.1,0,777.4,7.7,806.1,19.1c68.9,24.9,130.2,130.2,118.7,201c-7.6,59.4-802.3,1321.2-884.6,1407.4c-46,47.9-49.8,47.9-425.1,53.6C7243,2177.1,7185.6,2173.2,7141.6,2144.5z M8022.4,1346.1c149.3-235.5,271.9-434.7,271.9-440.4c0-5.8-189.6-11.5-421.3-11.5h-421.2v440.4V1775h149.4l147.4-1.9L8022.4,1346.1z"/><path d="M2000.4,1669.7c-61.3-61.3-67-76.6-57.5-147.4c5.7-49.8,28.7-97.6,59.4-128.3l49.8-49.8h1110.6h1110.6l49.8,49.8c30.7,30.6,53.6,78.5,59.4,128.3c9.6,70.9,3.8,86.2-57.4,147.4l-67,67H3162.7H2067.4L2000.4,1669.7z"/><path d="M2816.1,455.7c-82.3-84.2-78.5-193.4,9.6-281.5l67-67L3582,113l687.4,5.7l49.8,46c97.7,91.9,76.6,271.9-38.3,325.5c-32.5,13.4-268.1,21.1-727.6,21.1h-681.7L2816.1,455.7z"/></g></g>
</svg>